# xmcd CD database file
#
# Track frame offsets:
#	150
#	28352
#	43695
#	61342
#	95052
#	114035
#	132242
#	154365
#	182280
#	200390
#	218072
#
# Disc length: 3065 seconds
#
# Revision: 4
# Processed by: cddbd v1.5.2PL0 Copyright (c) Steve Scherf et al.
# Submitted via: CDex 1.51
#
DISCID=960bf70b
DTITLE=David Essig - Tremble And Weep
DYEAR=1996
DGENRE=Blues
TTITLE0=High Ground 2
TTITLE1=Tremble And Weep
TTITLE2=The Way Hate Walks
TTITLE3=Tampa
TTITLE4=Day Pass
TTITLE5=Secrets
TTITLE6=Kick The Stone
TTITLE7=Mary...Texas Mix Waltz
TTITLE8=By The Side Of The Road
TTITLE9=There But For
TTITLE10=Gracie's Cane
EXTD=YEAR: 1996
EXTT0=
EXTT1=
EXTT2=
EXTT3=
EXTT4=
EXTT5=
EXTT6=
EXTT7=
EXTT8=
EXTT9=
EXTT10=
PLAYORDER=
